<?xml version="1.0" standalone="no"?>
<!DOCTYPE svg PUBLIC "-//W3C//DTD SVG 20010904//EN"
 "http://www.w3.org/TR/2001/REC-SVG-20010904/DTD/svg10.dtd">
<svg version="1.0" xmlns="http://www.w3.org/2000/svg"
 width="99.000000pt" height="99.000000pt" viewBox="0 0 99.000000 99.000000"
 preserveAspectRatio="xMidYMid meet">
<metadata>
Created by potrace 1.15, written by Peter Selinger 2001-2017
</metadata>
<g transform="translate(0.000000,99.000000) scale(0.100000,-0.100000)"
fill="#000000" stroke="none">
<path d="M329 966 c-80 -28 -139 -67 -199 -132 -58 -63 -83 -104 -109 -181
-26 -78 -29 -223 -5 -304 45 -155 165 -278 321 -330 55 -18 82 -21 181 -17
111 3 121 5 195 41 105 51 183 129 234 234 36 74 38 84 41 195 4 99 1 126 -17
181 -52 156 -175 276 -330 321 -85 25 -230 21 -312 -8z m202 -99 c75 -26 102
-73 115 -197 13 -131 9 -194 -15 -235 -11 -19 -16 -35 -12 -35 11 0 201 -169
201 -179 0 -4 -22 -27 -50 -50 -46 -39 -51 -41 -72 -27 -41 26 -122 44 -171
39 -26 -3 -59 0 -75 6 -25 10 -34 9 -64 -8 -25 -16 -44 -19 -68 -15 -29 6 -37
16 -67 81 -25 52 -37 92 -41 141 -3 37 -12 77 -20 90 -18 27 -12 174 8 213 10
20 10 22 -1 12 -21 -21 -29 -15 -29 20 0 28 8 41 49 75 45 38 96 64 146 75 42
10 131 6 166 -6z"/>
<path d="M335 849 c-33 -10 -70 -30 -82 -44 -12 -14 -26 -25 -31 -25 -5 0 -15
-7 -22 -15 -10 -12 -10 -15 3 -15 9 0 20 -6 24 -12 4 -7 15 -14 23 -15 8 -1
25 -5 38 -9 16 -4 22 -2 22 8 0 11 8 14 26 10 20 -4 25 -2 19 8 -6 10 -2 11
18 6 21 -5 25 -3 21 9 -8 20 6 19 34 -3 16 -13 24 -32 29 -72 5 -41 12 -60 30
-73 13 -10 28 -38 34 -63 10 -40 29 -61 29 -32 0 6 3 8 6 5 7 -7 -14 -37 -25
-37 -4 0 -13 23 -20 50 -7 28 -23 58 -35 68 -16 12 -24 32 -29 70 -3 29 -8 56
-11 61 -7 10 -98 -9 -107 -22 -4 -6 -25 -7 -47 -3 -36 5 -41 3 -47 -15 -5 -15
-10 -18 -15 -9 -8 14 -30 -63 -30 -109 0 -25 4 -30 27 -33 35 -4 43 -28 9 -28
-17 0 -26 -5 -26 -16 0 -12 9 -15 38 -12 34 2 37 0 37 -22 -1 -14 -4 -38 -8
-53 -7 -26 -5 -28 15 -25 14 2 22 9 20 18 -3 11 -1 12 8 3 17 -16 5 -30 -30
-38 -32 -7 -42 -35 -12 -35 14 0 15 -2 2 -9 -8 -6 -18 -7 -22 -5 -10 7 -10 1
2 -31 5 -14 14 -23 20 -20 5 3 10 1 10 -4 0 -6 10 -11 23 -12 16 0 18 -2 7 -7
-8 -4 -15 -18 -15 -32 0 -20 6 -26 29 -28 16 -2 47 5 68 15 43 20 42 14 22
121 -8 40 5 56 68 88 35 18 60 24 89 21 41 -4 59 9 57 43 -3 41 3 71 12 65 16
-10 11 22 -6 39 -19 20 -51 6 -64 -27 -8 -21 -9 -21 -9 4 -1 31 29 62 56 57
16 -3 18 4 15 72 -3 55 -9 80 -22 95 -10 11 -20 28 -22 39 -4 24 -90 56 -148
55 -25 0 -72 -9 -105 -20z"/>
<path d="M515 409 c-50 -28 -95 -63 -95 -75 0 -7 9 -18 21 -24 16 -9 49 -64
49 -83 0 -2 -11 -2 -25 1 -20 3 -24 1 -19 -11 8 -23 32 -29 89 -22 47 6 91 -3
175 -38 9 -4 31 7 55 28 l40 35 -41 38 c-109 100 -137 123 -174 142 -45 23
-48 23 -75 9z"/>
</g>
</svg>
