<?xml version="1.0" standalone="no"?>
<!DOCTYPE svg PUBLIC "-//W3C//DTD SVG 20010904//EN"
 "http://www.w3.org/TR/2001/REC-SVG-20010904/DTD/svg10.dtd">
<svg version="1.0" xmlns="http://www.w3.org/2000/svg"
 width="100.000000pt" height="100.000000pt" viewBox="0 0 100.000000 100.000000"
 preserveAspectRatio="xMidYMid meet">
<metadata>
Created by potrace 1.15, written by Peter Selinger 2001-2017
</metadata>
<g transform="translate(0.000000,100.000000) scale(0.100000,-0.100000)"
fill="#000000" stroke="none">
<path d="M360 986 c-170 -49 -313 -199 -350 -367 -7 -33 -11 -97 -8 -155 3
-89 7 -107 40 -177 62 -130 166 -223 298 -267 88 -29 265 -25 350 8 117 47
235 165 282 282 33 85 37 262 8 350 -44 132 -137 236 -267 298 -75 35 -83 37
-193 39 -71 1 -132 -3 -160 -11z m274 -170 c81 -47 124 -123 126 -221 3 -179
-7 -387 -20 -395 -7 -4 -58 -14 -113 -21 -80 -10 -122 -10 -211 0 -60 6 -121
17 -134 24 l-24 12 -2 225 c-1 222 -1 226 24 274 28 55 79 101 136 122 60 22
162 13 218 -20z"/>
<path d="M429 817 c-43 -16 -82 -45 -111 -82 -39 -50 -46 -98 -42 -310 5 -233
-11 -209 152 -226 87 -10 126 -9 206 2 l98 14 2 226 1 225 -30 49 c-58 93
-179 138 -276 102z m21 -229 c25 -13 46 -31 48 -41 5 -27 -51 -77 -88 -77 -56
0 -110 75 -82 116 19 29 66 30 122 2z m221 12 c22 -12 26 -65 6 -91 -34 -44
-96 -51 -133 -14 -40 40 -30 75 26 97 53 20 74 22 101 8z m-89 -217 c37 -34
16 -96 -38 -109 -91 -23 -169 51 -114 106 26 26 124 28 152 3z"/>
</g>
</svg>
